# xmcd
#
# Track frame offsets:
#	150
#	18775
#	42278
#	61823
#	88293
#	112035
#	129463
#	148290
#	178143
#	196955
#	218723
#	238150
#	241278
#
# Disc length: 3444 seconds
#
# Revision: 1
# Processed by: cddbd v1.5.1PL0 Copyright (c) Steve Scherf et al.
# Submitted via: CDex 1.50Beta5
#
DISCID=be0d720d
DTITLE=溝口肇 - archcello
DYEAR=2003
DGENRE=New Age
TTITLE0=view,the
TTITLE1=B.M.-Bologna Milano
TTITLE2=snowing sky
TTITLE3=mikan
TTITLE4=flying“R”
TTITLE5=layer of notes
TTITLE6=pantheon
TTITLE7=once-いつか遠い日
TTITLE8=jazz mid cello
TTITLE9=red earth
TTITLE10=I fell you
TTITLE11=extra
TTITLE12=Mr.Lonely
EXTD=
EXTT0=
EXTT1=
EXTT2=
EXTT3=
EXTT4=
EXTT5=
EXTT6=
EXTT7=
EXTT8=
EXTT9=
EXTT10=
EXTT11=
EXTT12=
PLAYORDER=
